<svg width="494" height="80.00000000000001" xmlns="http://www.w3.org/2000/svg">

 <g>
  <title>background</title>
  <rect fill="none" id="canvas_background" height="402" width="582" y="-1" x="-1"/>
 </g>
 <g>
  <title>Layer 1</title>
  <rect id="svg_1" height="71" width="585" fill="none" y="5" x="1"/>
  <path id="svg_6" d="m87.957974,40.176641l0.936,8.928l0.288,0l1.008,-9.071l8.784,-28.009l6.48,0l8.64,28.152l1.008,8.928l0.288,0l1.102,-9.071l6.243,-28.009l9.864,0l-13.897,50.761l-6.624,0l-9,-28.009l-1.224,-7.703l-0.36,0l-1.224,7.775l-8.928,27.937l-6.984,0l-13.824,-50.761l10.728,0l6.696,28.152z" fill="#ffffff"/>
  <path id="svg_7" d="m136.841051,12.024641l29.881,0l0,8.784l-20.017,0l0,11.737l18.216,0l0,8.784l-18.216,0l0,12.312l20.376,0l0,8.784l-30.24,0l0,-50.401z" fill="#ffffff"/>
  <path id="svg_8" d="m207.771949,24.299103c0,1.249 -0.155,2.496 -0.466,3.744c-0.311,1.249 -0.823,2.389 -1.539,3.42c-0.715,1.033 -1.646,1.944 -2.791,2.736c-1.145,0.792 -2.529,1.38 -4.151,1.764l0,0.432c1.433,0.241 2.794,0.648 4.083,1.225s2.412,1.368 3.367,2.376s1.707,2.231 2.256,3.672c0.55,1.439 0.825,3.145 0.825,5.112c0,2.592 -0.552,4.836 -1.655,6.731c-1.105,1.896 -2.582,3.445 -4.429,4.645c-1.849,1.2 -3.948,2.088 -6.3,2.664c-2.353,0.575 -4.777,0.863 -7.271,0.863c-0.817,0 -1.861,0 -3.133,0s-2.641,-0.036 -4.104,-0.107c-1.465,-0.072 -2.952,-0.181 -4.465,-0.324c-1.512,-0.145 -2.893,-0.36 -4.14,-0.648l0,-49.68c0.911,-0.144 1.956,-0.288 3.132,-0.432c1.176,-0.145 2.436,-0.264 3.78,-0.36c1.343,-0.096 2.724,-0.168 4.14,-0.216s2.82,-0.072 4.213,-0.072c2.351,0 4.644,0.18 6.875,0.54c2.232,0.36 4.224,0.997 5.977,1.908c1.752,0.912 3.156,2.185 4.212,3.815c1.055,1.633 1.584,3.697 1.584,6.192zm-21.096,9.432c0.671,0 1.451,-0.023 2.34,-0.07c0.888,-0.048 1.62,-0.119 2.196,-0.214c1.823,-0.569 3.395,-1.424 4.716,-2.565c1.319,-1.14 1.979,-2.636 1.979,-4.488c0,-1.235 -0.24,-2.256 -0.72,-3.063c-0.48,-0.808 -1.116,-1.449 -1.907,-1.924c-0.793,-0.475 -1.693,-0.807 -2.701,-0.997c-1.008,-0.189 -2.064,-0.285 -3.168,-0.285c-1.248,0 -2.4,0.024 -3.455,0.072c-1.057,0.047 -1.873,0.118 -2.449,0.212l0,13.323l3.169,0l0,-0.001zm3.122,21.673c1.179,0 2.322,-0.143 3.429,-0.428s2.085,-0.725 2.935,-1.318c0.848,-0.595 1.53,-1.343 2.049,-2.246c0.518,-0.902 0.777,-1.972 0.777,-3.207c0,-1.568 -0.307,-2.804 -0.919,-3.706c-0.613,-0.902 -1.414,-1.603 -2.404,-2.103c-0.989,-0.499 -2.097,-0.82 -3.321,-0.963c-1.226,-0.142 -2.451,-0.214 -3.675,-0.214l-5.161,0l0,13.757c0.236,0.096 0.613,0.166 1.131,0.214c0.518,0.047 1.071,0.083 1.661,0.106c0.589,0.024 1.201,0.049 1.838,0.072s1.189,0.036 1.66,0.036z" fill="#ffffff"/>
  <path id="svg_9" d="m245.33382,60.900103c-1.537,1.096 -3.492,1.881 -5.868,2.357c-2.376,0.476 -4.812,0.714 -7.309,0.714c-3.023,0 -5.893,-0.468 -8.604,-1.404c-2.713,-0.936 -5.101,-2.447 -7.164,-4.535c-2.064,-2.088 -3.708,-4.8 -4.932,-8.137c-1.225,-3.335 -1.836,-7.38 -1.836,-12.132c0,-4.943 0.684,-9.083 2.052,-12.42c1.368,-3.336 3.144,-6.023 5.328,-8.063c2.184,-2.04 4.619,-3.504 7.308,-4.393c2.688,-0.888 5.375,-1.332 8.064,-1.332c2.88,0 5.315,0.192 7.308,0.576c1.991,0.385 3.636,0.841 4.933,1.368l-1.944,8.352c-1.104,-0.527 -2.412,-0.911 -3.925,-1.151c-1.512,-0.24 -3.348,-0.36 -5.508,-0.36c-3.984,0 -7.188,1.42 -9.611,4.257c-2.425,2.839 -3.637,7.239 -3.637,13.203c0,2.598 0.289,4.967 0.864,7.106c0.576,2.142 1.452,3.97 2.628,5.483c1.176,1.516 2.64,2.694 4.393,3.536c1.752,0.842 3.779,1.262 6.084,1.262c2.16,0 3.983,-0.216 5.472,-0.647c1.487,-0.433 2.783,-0.983 3.888,-1.656l2.016,8.016z" fill="#ffffff"/>
  <path id="svg_10" d="m275.89505,51.290282l-15.48,0l-3.816,11.16l-9.863,0l18.145,-50.76l7.271,0l18.145,50.76l-10.369,0l-4.033,-11.16zm-12.96,-7.92l10.8,0l-3.744,-11.231l-1.512,-7.921l-0.36,0l-1.512,7.992l-3.672,11.16z" fill="#ffffff"/>
  <path id="svg_11" d="m331.070026,36.264l1.08,-10.008l-0.433,0l-3.096,8.063l-10.728,18.792l-3.169,0l-11.303,-18.864l-3.168,-7.991l-0.36,0l1.44,9.936l0,26.208l-9.361,0l0,-50.4l9,0l13.465,23.04l2.376,5.761l0.288,0l2.16,-5.904l12.744,-22.896l8.928,0l0,50.4l-9.864,0l0,-26.137l0.001,0z" fill="#ffffff"/>
  <path stroke="null" id="svg_12" d="m345.44482,13.015821c2.016,-0.383 4.235,-0.684 6.66,-0.899c2.423,-0.216 4.835,-0.324 7.235,-0.324c2.495,0 5.004,0.205 7.524,0.612c2.52,0.408 4.788,1.224 6.804,2.448c2.016,1.224 3.66,2.928 4.932,5.111c1.271,2.185 1.908,5.029 1.908,8.532c0,3.168 -0.552,5.845 -1.656,8.028c-1.104,2.185 -2.568,3.972 -4.392,5.363c-1.824,1.394 -3.9,2.401 -6.228,3.024c-2.329,0.624 -4.741,0.936 -7.236,0.936c-0.241,0 -0.624,0 -1.152,0s-1.08,-0.011 -1.655,-0.035c-0.576,-0.024 -1.142,-0.06 -1.692,-0.108c-0.553,-0.047 -0.948,-0.096 -1.188,-0.144l0,17.352l-9.863,0l0,-49.896l-0.001,0zm14.687,7.272c-0.961,0 -1.872,0.036 -2.735,0.108c-0.864,0.071 -1.561,0.156 -2.089,0.252l0,16.344c0.191,0.048 0.479,0.097 0.864,0.144c0.384,0.049 0.792,0.085 1.225,0.108c0.432,0.024 0.852,0.036 1.26,0.036c0.407,0 0.707,0 0.899,0c1.296,0 2.58,-0.119 3.853,-0.36c1.271,-0.239 2.412,-0.684 3.42,-1.332c1.008,-0.647 1.812,-1.548 2.412,-2.7c0.6,-1.151 0.899,-2.664 0.899,-4.535c0,-1.584 -0.288,-2.892 -0.863,-3.925c-0.576,-1.031 -1.332,-1.859 -2.269,-2.483c-0.936,-0.623 -2.005,-1.056 -3.204,-1.296c-1.2,-0.24 -2.424,-0.361 -3.672,-0.361z" fill="#ffffff"/>
  <rect id="svg_13" height="58.825" width="18" fill="#FE4918" y="9.175" x="5"/>
  <g stroke="null" id="svg_18">
   <path stroke="null" id="svg_17" d="m47.92422,53.440975l-3.822742,-1.033345c-0.401075,-0.105086 -0.626679,-0.496239 -0.513877,-0.869878l8.554169,-27.450788c0.112802,-0.373639 0.532677,-0.583811 0.933752,-0.478725l3.822742,1.033345c0.401075,0.105086 0.626679,0.496239 0.513877,0.869878l-8.554169,27.450788c-0.119069,0.373639 -0.532677,0.589649 -0.933752,0.478725zm-7.144141,-6.550358l2.726054,-2.708882c0.288272,-0.286067 0.269472,-0.74144 -0.050134,-1.004155l-5.677712,-4.652973l5.677712,-4.652973c0.319606,-0.262715 0.344673,-0.718087 0.050134,-1.004155l-2.726054,-2.708882c-0.282006,-0.280229 -0.758282,-0.297744 -1.065354,-0.029191l-9.030445,7.881447c-0.319606,0.274391 -0.319606,0.747278 0,1.021669l9.030445,7.887285c0.307073,0.268553 0.783349,0.256877 1.065354,-0.029191zm20.504938,0.035029l9.030445,-7.887285c0.319606,-0.274391 0.319606,-0.747278 0,-1.021669l-9.030445,-7.893123c-0.300806,-0.262715 -0.777082,-0.251039 -1.065354,0.029191l-2.726054,2.708882c-0.288272,0.286067 -0.269472,0.74144 0.050134,1.004155l5.677712,4.658811l-5.677712,4.652973c-0.319606,0.262715 -0.344673,0.718087 -0.050134,1.004155l2.726054,2.708882c0.282006,0.286067 0.758282,0.297744 1.065354,0.035029z" fill="#ffffff"/>
  </g>
 </g>
</svg>